{
	"asset":{
		"generator":"Khronos glTF Blender I/O v4.1.63",
		"version":"2.0"
	},
	"scene":0,
	"scenes":[
		{
			"name":"Scene",
			"nodes":[
				0
			]
		}
	],
	"nodes":[
		{
			"mesh":0,
			"name":"Bank",
			"rotation":[
				0,
				0,
				-1,
				0
			],
			"scale":[
				-3.4807846546173096,
				-2.4481592178344727,
				-2.4529597759246826
			],
			"translation":[
				-0.038638949394226074,
				2.454827308654785,
				0.14350919425487518
			]
		}
	],
	"materials":[
		{
			"doubleSided":true,
			"name":"Material.001",
			"pbrMetallicRoughness":{
				"baseColorFactor":[
					0.07589699327945709,
					1,
					0.05628611519932747,
					1
				],
				"metallicFactor":0,
				"roughnessFactor":0.5
			}
		},
		{
			"doubleSided":true,
			"name":"Material",
			"pbrMetallicRoughness":{
				"baseColorFactor":[
					0.01830153912305832,
					0.4626755714416504,
					0,
					1
				],
				"metallicFactor":0,
				"roughnessFactor":0.5
			}
		},
		{
			"doubleSided":true,
			"name":"Material.002",
			"pbrMetallicRoughness":{
				"baseColorFactor":[
					0,
					0.9378201961517334,
					0.9613665342330933,
					1
				],
				"metallicFactor":0,
				"roughnessFactor":0.5
			}
		},
		{
			"doubleSided":true,
			"name":"Material.003",
			"pbrMetallicRoughness":{
				"baseColorFactor":[
					0.341561496257782,
					0.08177215605974197,
					0,
					1
				],
				"metallicFactor":0,
				"roughnessFactor":0.5
			}
		},
		{
			"doubleSided":true,
			"name":"Material.004",
			"pbrMetallicRoughness":{
				"baseColorFactor":[
					0.8016180992126465,
					0.4300881624221802,
					0,
					1
				],
				"metallicFactor":0,
				"roughnessFactor":0.5
			}
		},
		{
			"doubleSided":true,
			"name":"Material.005",
			"pbrMetallicRoughness":{
				"baseColorFactor":[
					0.8013269305229187,
					0.7377902865409851,
					0.7189939022064209,
					1
				],
				"metallicFactor":0,
				"roughnessFactor":0.5
			}
		}
	],
	"meshes":[
		{
			"name":"Cube",
			"primitives":[
				{
					"attributes":{
						"POSITION":0,
						"NORMAL":1,
						"TEXCOORD_0":2
					},
					"indices":3,
					"material":0
				},
				{
					"attributes":{
						"POSITION":4,
						"NORMAL":5,
						"TEXCOORD_0":6
					},
					"indices":7,
					"material":1
				},
				{
					"attributes":{
						"POSITION":8,
						"NORMAL":9,
						"TEXCOORD_0":10
					},
					"indices":11,
					"material":2
				},
				{
					"attributes":{
						"POSITION":12,
						"NORMAL":13,
						"TEXCOORD_0":14
					},
					"indices":15,
					"material":3
				},
				{
					"attributes":{
						"POSITION":16,
						"NORMAL":17,
						"TEXCOORD_0":18
					},
					"indices":19,
					"material":4
				},
				{
					"attributes":{
						"POSITION":20,
						"NORMAL":21,
						"TEXCOORD_0":22
					},
					"indices":23,
					"material":5
				}
			]
		}
	],
	"accessors":[
		{
			"bufferView":0,
			"componentType":5126,
			"count":192,
			"max":[
				1.0175844430923462,
				1.9284172058105469,
				1.5790623426437378
			],
			"min":[
				-1.0065523386001587,
				-1.0244104862213135,
				-1.5316162109375
			],
			"type":"VEC3"
		},
		{
			"bufferView":1,
			"componentType":5126,
			"count":192,
			"type":"VEC3"
		},
		{
			"bufferView":2,
			"componentType":5126,
			"count":192,
			"type":"VEC2"
		},
		{
			"bufferView":3,
			"componentType":5123,
			"count":288,
			"type":"SCALAR"
		},
		{
			"bufferView":4,
			"componentType":5126,
			"count":2088,
			"max":[
				1.0512698888778687,
				1.038599967956543,
				1.4709304571151733
			],
			"min":[
				-1.0334144830703735,
				-1.0215519666671753,
				-1.4234718084335327
			],
			"type":"VEC3"
		},
		{
			"bufferView":5,
			"componentType":5126,
			"count":2088,
			"type":"VEC3"
		},
		{
			"bufferView":6,
			"componentType":5126,
			"count":2088,
			"type":"VEC2"
		},
		{
			"bufferView":7,
			"componentType":5123,
			"count":3804,
			"type":"SCALAR"
		},
		{
			"bufferView":8,
			"componentType":5126,
			"count":432,
			"max":[
				0.8346075415611267,
				0.5058012008666992,
				1.1103845834732056
			],
			"min":[
				-0.8237313032150269,
				-0.39936554431915283,
				-1.0541120767593384
			],
			"type":"VEC3"
		},
		{
			"bufferView":9,
			"componentType":5126,
			"count":432,
			"type":"VEC3"
		},
		{
			"bufferView":10,
			"componentType":5126,
			"count":432,
			"type":"VEC2"
		},
		{
			"bufferView":11,
			"componentType":5123,
			"count":648,
			"type":"SCALAR"
		},
		{
			"bufferView":12,
			"componentType":5126,
			"count":48,
			"max":[
				0.07607807219028473,
				-0.02861255407333374,
				1.1119722127914429
			],
			"min":[
				-0.08420056104660034,
				-0.6399569511413574,
				-1.0696616172790527
			],
			"type":"VEC3"
		},
		{
			"bufferView":13,
			"componentType":5126,
			"count":48,
			"type":"VEC3"
		},
		{
			"bufferView":14,
			"componentType":5126,
			"count":48,
			"type":"VEC2"
		},
		{
			"bufferView":15,
			"componentType":5123,
			"count":72,
			"type":"SCALAR"
		},
		{
			"bufferView":16,
			"componentType":5126,
			"count":384,
			"max":[
				1.0698573589324951,
				1.0262815952301025,
				1.030457854270935
			],
			"min":[
				-1.0549207925796509,
				-0.9716820120811462,
				-0.9635955095291138
			],
			"type":"VEC3"
		},
		{
			"bufferView":17,
			"componentType":5126,
			"count":384,
			"type":"VEC3"
		},
		{
			"bufferView":18,
			"componentType":5126,
			"count":384,
			"type":"VEC2"
		},
		{
			"bufferView":19,
			"componentType":5123,
			"count":744,
			"type":"SCALAR"
		},
		{
			"bufferView":20,
			"componentType":5126,
			"count":864,
			"max":[
				1.1176601648330688,
				0.6871548295021057,
				0.4487072229385376
			],
			"min":[
				-1.1212091445922852,
				-0.491590678691864,
				-0.38474801182746887
			],
			"type":"VEC3"
		},
		{
			"bufferView":21,
			"componentType":5126,
			"count":864,
			"type":"VEC3"
		},
		{
			"bufferView":22,
			"componentType":5126,
			"count":864,
			"type":"VEC2"
		},
		{
			"bufferView":23,
			"componentType":5123,
			"count":1296,
			"type":"SCALAR"
		}
	],
	"bufferViews":[
		{
			"buffer":0,
			"byteLength":2304,
			"byteOffset":0,
			"target":34962
		},
		{
			"buffer":0,
			"byteLength":2304,
			"byteOffset":2304,
			"target":34962
		},
		{
			"buffer":0,
			"byteLength":1536,
			"byteOffset":4608,
			"target":34962
		},
		{
			"buffer":0,
			"byteLength":576,
			"byteOffset":6144,
			"target":34963
		},
		{
			"buffer":0,
			"byteLength":25056,
			"byteOffset":6720,
			"target":34962
		},
		{
			"buffer":0,
			"byteLength":25056,
			"byteOffset":31776,
			"target":34962
		},
		{
			"buffer":0,
			"byteLength":16704,
			"byteOffset":56832,
			"target":34962
		},
		{
			"buffer":0,
			"byteLength":7608,
			"byteOffset":73536,
			"target":34963
		},
		{
			"buffer":0,
			"byteLength":5184,
			"byteOffset":81144,
			"target":34962
		},
		{
			"buffer":0,
			"byteLength":5184,
			"byteOffset":86328,
			"target":34962
		},
		{
			"buffer":0,
			"byteLength":3456,
			"byteOffset":91512,
			"target":34962
		},
		{
			"buffer":0,
			"byteLength":1296,
			"byteOffset":94968,
			"target":34963
		},
		{
			"buffer":0,
			"byteLength":576,
			"byteOffset":96264,
			"target":34962
		},
		{
			"buffer":0,
			"byteLength":576,
			"byteOffset":96840,
			"target":34962
		},
		{
			"buffer":0,
			"byteLength":384,
			"byteOffset":97416,
			"target":34962
		},
		{
			"buffer":0,
			"byteLength":144,
			"byteOffset":97800,
			"target":34963
		},
		{
			"buffer":0,
			"byteLength":4608,
			"byteOffset":97944,
			"target":34962
		},
		{
			"buffer":0,
			"byteLength":4608,
			"byteOffset":102552,
			"target":34962
		},
		{
			"buffer":0,
			"byteLength":3072,
			"byteOffset":107160,
			"target":34962
		},
		{
			"buffer":0,
			"byteLength":1488,
			"byteOffset":110232,
			"target":34963
		},
		{
			"buffer":0,
			"byteLength":10368,
			"byteOffset":111720,
			"target":34962
		},
		{
			"buffer":0,
			"byteLength":10368,
			"byteOffset":122088,
			"target":34962
		},
		{
			"buffer":0,
			"byteLength":6912,
			"byteOffset":132456,
			"target":34962
		},
		{
			"buffer":0,
			"byteLength":2592,
			"byteOffset":139368,
			"target":34963
		}
	],
	"buffers":[
		{
			"byteLength":141960,
			"uri":"bank.bin"
		}
	]
}
