{
	"asset":{
		"generator":"Khronos glTF Blender I/O v4.1.63",
		"version":"2.0"
	},
	"scene":0,
	"scenes":[
		{
			"name":"Scene",
			"nodes":[
				0,
				1,
				2,
				3,
				4,
				5,
				6,
				7,
				8,
				9
			]
		}
	],
	"nodes":[
		{
			"mesh":0,
			"name":"Cube",
			"rotation":[
				0,
				1,
				0,
				0
			],
			"scale":[
				-1.2128382921218872,
				-0.029506921768188477,
				-1
			]
		},
		{
			"mesh":1,
			"name":"Cube.002",
			"rotation":[
				0.18143068253993988,
				-0.7605674266815186,
				-0.5754245519638062,
				0.23980598151683807
			],
			"scale":[
				-0.036957740783691406,
				-0.027941318228840828,
				-0.11680891364812851
			],
			"translation":[
				-0.07770534604787827,
				0.32542315125465393,
				-1.0265123844146729
			]
		},
		{
			"mesh":2,
			"name":"Cube.003",
			"rotation":[
				0.6052939295768738,
				0,
				0,
				0.7960020303726196
			],
			"scale":[
				0.7159545421600342,
				0.012054252438247204,
				0.8450416922569275
			],
			"translation":[
				0,
				0.8258568048477173,
				-1.1806527376174927
			]
		},
		{
			"mesh":3,
			"name":"Cube.004",
			"rotation":[
				0,
				1,
				0,
				0
			],
			"scale":[
				-1.1251168251037598,
				-0.029506921768188477,
				-0.43919575214385986
			],
			"translation":[
				0,
				0.026462288573384285,
				-0.10682329535484314
			]
		},
		{
			"mesh":4,
			"name":"Cube.005",
			"rotation":[
				0,
				1,
				0,
				0
			],
			"scale":[
				-0.32962918281555176,
				-0.029506921768188477,
				-0.23735381662845612
			],
			"translation":[
				0,
				0.026462288573384285,
				0.6649078130722046
			]
		},
		{
			"mesh":5,
			"name":"Monitor",
			"rotation":[
				0,
				0.7974769473075867,
				0.6033494472503662,
				0
			],
			"scale":[
				-1.2080129384994507,
				-0.04586275294423103,
				-0.1532553732395172
			],
			"translation":[
				0,
				0.31911933422088623,
				-1.0150375366210938
			]
		},
		{
			"mesh":6,
			"name":"Cube.009",
			"rotation":[
				0.18143068253993988,
				-0.7605674266815186,
				-0.5754245519638062,
				0.23980598151683807
			],
			"scale":[
				-0.036957740783691406,
				-0.027941318228840828,
				-0.11680891364812851
			],
			"translation":[
				-0.07770534604787827,
				0.32542315125465393,
				-1.0265123844146729
			]
		},
		{
			"mesh":7,
			"name":"V",
			"rotation":[
				0.18143068253993988,
				-0.7605674266815186,
				-0.5754245519638062,
				0.23980601131916046
			],
			"scale":[
				-0.02975221909582615,
				-0.02654292806982994,
				-0.0940350890159607
			],
			"translation":[
				-0.04410489648580551,
				0.3396736681461334,
				-0.9760839939117432
			]
		},
		{
			"mesh":8,
			"name":"Cube.012",
			"rotation":[
				0,
				1,
				0,
				0
			],
			"scale":[
				-0.27737170457839966,
				-0.029506921768188477,
				-0.3447670340538025
			],
			"translation":[
				0.7857503890991211,
				0.03416917845606804,
				-0.10682329535484314
			]
		},
		{
			"mesh":9,
			"name":"Cube.013",
			"rotation":[
				0,
				1,
				0,
				0
			],
			"scale":[
				-0.730495035648346,
				-0.029506921768188477,
				-0.3447670340538025
			],
			"translation":[
				-0.3029877841472626,
				0.03416917845606804,
				-0.10682329535484314
			]
		}
	],
	"materials":[
		{
			"doubleSided":true,
			"name":"Material.004",
			"pbrMetallicRoughness":{
				"baseColorFactor":[
					0.001912261825054884,
					0,
					0.03282080218195915,
					1
				],
				"metallicFactor":0,
				"roughnessFactor":0.5
			}
		},
		{
			"doubleSided":true,
			"name":"Material",
			"pbrMetallicRoughness":{
				"baseColorFactor":[
					0.32290810346603394,
					0.5724910497665405,
					0.8004242181777954,
					1
				],
				"metallicFactor":0,
				"roughnessFactor":0.5
			}
		},
		{
			"doubleSided":true,
			"name":"Material.008",
			"pbrMetallicRoughness":{
				"baseColorFactor":[
					0.005244910717010498,
					0.005244910717010498,
					0.005244910717010498,
					1
				],
				"metallicFactor":0,
				"roughnessFactor":0.5
			}
		},
		{
			"doubleSided":true,
			"name":"Material.005",
			"pbrMetallicRoughness":{
				"baseColorFactor":[
					0,
					0,
					0,
					1
				],
				"metallicFactor":0,
				"roughnessFactor":0.5
			}
		},
		{
			"doubleSided":true,
			"name":"Material.003",
			"pbrMetallicRoughness":{
				"baseColorFactor":[
					0.004925895482301712,
					0.022457538172602654,
					0.13799771666526794,
					1
				],
				"metallicFactor":0,
				"roughnessFactor":0.5
			}
		},
		{
			"doubleSided":true,
			"name":"Material.001",
			"pbrMetallicRoughness":{
				"baseColorFactor":[
					0,
					0,
					0,
					1
				],
				"metallicFactor":0,
				"roughnessFactor":0.5
			}
		},
		{
			"doubleSided":true,
			"name":"Material.006",
			"pbrMetallicRoughness":{
				"baseColorFactor":[
					0.005899735726416111,
					0,
					0.08915244787931442,
					1
				],
				"metallicFactor":0,
				"roughnessFactor":0.5
			}
		},
		{
			"doubleSided":true,
			"name":"Material.007",
			"pbrMetallicRoughness":{
				"baseColorFactor":[
					0.0028365678153932095,
					0,
					0.10223696380853653,
					1
				],
				"metallicFactor":0,
				"roughnessFactor":0.5
			}
		}
	],
	"meshes":[
		{
			"name":"Cube",
			"primitives":[
				{
					"attributes":{
						"POSITION":0,
						"NORMAL":1,
						"TEXCOORD_0":2
					},
					"indices":3,
					"material":0
				}
			]
		},
		{
			"name":"Cube.002",
			"primitives":[
				{
					"attributes":{
						"POSITION":4,
						"NORMAL":5,
						"TEXCOORD_0":6
					},
					"indices":3,
					"material":1
				}
			]
		},
		{
			"name":"Cube.003",
			"primitives":[
				{
					"attributes":{
						"POSITION":7,
						"NORMAL":8,
						"TEXCOORD_0":9
					},
					"indices":3,
					"material":2
				}
			]
		},
		{
			"name":"Cube.004",
			"primitives":[
				{
					"attributes":{
						"POSITION":10,
						"NORMAL":11,
						"TEXCOORD_0":12
					},
					"indices":3,
					"material":3
				}
			]
		},
		{
			"name":"Cube.005",
			"primitives":[
				{
					"attributes":{
						"POSITION":13,
						"NORMAL":14,
						"TEXCOORD_0":15
					},
					"indices":3,
					"material":4
				}
			]
		},
		{
			"name":"Cube.007",
			"primitives":[
				{
					"attributes":{
						"POSITION":16,
						"NORMAL":17,
						"TEXCOORD_0":18
					},
					"indices":19,
					"material":5
				}
			]
		},
		{
			"name":"Cube.017",
			"primitives":[
				{
					"attributes":{
						"POSITION":20,
						"NORMAL":21,
						"TEXCOORD_0":22
					},
					"indices":3,
					"material":1
				}
			]
		},
		{
			"name":"Cube.018",
			"primitives":[
				{
					"attributes":{
						"POSITION":23,
						"NORMAL":24,
						"TEXCOORD_0":25
					},
					"indices":26,
					"material":1
				}
			]
		},
		{
			"name":"Cube.021",
			"primitives":[
				{
					"attributes":{
						"POSITION":27,
						"NORMAL":28,
						"TEXCOORD_0":29
					},
					"indices":3,
					"material":6
				}
			]
		},
		{
			"name":"Cube.022",
			"primitives":[
				{
					"attributes":{
						"POSITION":30,
						"NORMAL":31,
						"TEXCOORD_0":32
					},
					"indices":3,
					"material":7
				}
			]
		}
	],
	"accessors":[
		{
			"bufferView":0,
			"componentType":5126,
			"count":24,
			"max":[
				1,
				1,
				1
			],
			"min":[
				-1,
				-1,
				-1
			],
			"type":"VEC3"
		},
		{
			"bufferView":1,
			"componentType":5126,
			"count":24,
			"type":"VEC3"
		},
		{
			"bufferView":2,
			"componentType":5126,
			"count":24,
			"type":"VEC2"
		},
		{
			"bufferView":3,
			"componentType":5123,
			"count":36,
			"type":"SCALAR"
		},
		{
			"bufferView":4,
			"componentType":5126,
			"count":24,
			"max":[
				1,
				1,
				1
			],
			"min":[
				-1,
				-1,
				-1
			],
			"type":"VEC3"
		},
		{
			"bufferView":5,
			"componentType":5126,
			"count":24,
			"type":"VEC3"
		},
		{
			"bufferView":6,
			"componentType":5126,
			"count":24,
			"type":"VEC2"
		},
		{
			"bufferView":7,
			"componentType":5126,
			"count":24,
			"max":[
				1,
				1,
				1
			],
			"min":[
				-1,
				-1,
				-1
			],
			"type":"VEC3"
		},
		{
			"bufferView":8,
			"componentType":5126,
			"count":24,
			"type":"VEC3"
		},
		{
			"bufferView":9,
			"componentType":5126,
			"count":24,
			"type":"VEC2"
		},
		{
			"bufferView":10,
			"componentType":5126,
			"count":24,
			"max":[
				1,
				1,
				1
			],
			"min":[
				-1,
				-1,
				-1
			],
			"type":"VEC3"
		},
		{
			"bufferView":11,
			"componentType":5126,
			"count":24,
			"type":"VEC3"
		},
		{
			"bufferView":12,
			"componentType":5126,
			"count":24,
			"type":"VEC2"
		},
		{
			"bufferView":13,
			"componentType":5126,
			"count":24,
			"max":[
				1,
				1,
				1
			],
			"min":[
				-1,
				-1,
				-1
			],
			"type":"VEC3"
		},
		{
			"bufferView":14,
			"componentType":5126,
			"count":24,
			"type":"VEC3"
		},
		{
			"bufferView":15,
			"componentType":5126,
			"count":24,
			"type":"VEC2"
		},
		{
			"bufferView":16,
			"componentType":5126,
			"count":120,
			"max":[
				1.0057594776153564,
				1,
				1
			],
			"min":[
				-1.0057594776153564,
				-1.172374963760376,
				-9.96310043334961
			],
			"type":"VEC3"
		},
		{
			"bufferView":17,
			"componentType":5126,
			"count":120,
			"type":"VEC3"
		},
		{
			"bufferView":18,
			"componentType":5126,
			"count":120,
			"type":"VEC2"
		},
		{
			"bufferView":19,
			"componentType":5123,
			"count":180,
			"type":"SCALAR"
		},
		{
			"bufferView":20,
			"componentType":5126,
			"count":24,
			"max":[
				1,
				1,
				1
			],
			"min":[
				-1,
				-1,
				-1
			],
			"type":"VEC3"
		},
		{
			"bufferView":21,
			"componentType":5126,
			"count":24,
			"type":"VEC3"
		},
		{
			"bufferView":22,
			"componentType":5126,
			"count":24,
			"type":"VEC2"
		},
		{
			"bufferView":23,
			"componentType":5126,
			"count":48,
			"max":[
				6.263374328613281,
				1.0000001192092896,
				1.3322371244430542
			],
			"min":[
				-1,
				-1.001491665840149,
				-1
			],
			"type":"VEC3"
		},
		{
			"bufferView":24,
			"componentType":5126,
			"count":48,
			"type":"VEC3"
		},
		{
			"bufferView":25,
			"componentType":5126,
			"count":48,
			"type":"VEC2"
		},
		{
			"bufferView":26,
			"componentType":5123,
			"count":72,
			"type":"SCALAR"
		},
		{
			"bufferView":27,
			"componentType":5126,
			"count":24,
			"max":[
				1,
				1,
				1
			],
			"min":[
				-1,
				-1,
				-1
			],
			"type":"VEC3"
		},
		{
			"bufferView":28,
			"componentType":5126,
			"count":24,
			"type":"VEC3"
		},
		{
			"bufferView":29,
			"componentType":5126,
			"count":24,
			"type":"VEC2"
		},
		{
			"bufferView":30,
			"componentType":5126,
			"count":24,
			"max":[
				1,
				1,
				1
			],
			"min":[
				-1,
				-1,
				-1
			],
			"type":"VEC3"
		},
		{
			"bufferView":31,
			"componentType":5126,
			"count":24,
			"type":"VEC3"
		},
		{
			"bufferView":32,
			"componentType":5126,
			"count":24,
			"type":"VEC2"
		}
	],
	"bufferViews":[
		{
			"buffer":0,
			"byteLength":288,
			"byteOffset":0,
			"target":34962
		},
		{
			"buffer":0,
			"byteLength":288,
			"byteOffset":288,
			"target":34962
		},
		{
			"buffer":0,
			"byteLength":192,
			"byteOffset":576,
			"target":34962
		},
		{
			"buffer":0,
			"byteLength":72,
			"byteOffset":768,
			"target":34963
		},
		{
			"buffer":0,
			"byteLength":288,
			"byteOffset":840,
			"target":34962
		},
		{
			"buffer":0,
			"byteLength":288,
			"byteOffset":1128,
			"target":34962
		},
		{
			"buffer":0,
			"byteLength":192,
			"byteOffset":1416,
			"target":34962
		},
		{
			"buffer":0,
			"byteLength":288,
			"byteOffset":1608,
			"target":34962
		},
		{
			"buffer":0,
			"byteLength":288,
			"byteOffset":1896,
			"target":34962
		},
		{
			"buffer":0,
			"byteLength":192,
			"byteOffset":2184,
			"target":34962
		},
		{
			"buffer":0,
			"byteLength":288,
			"byteOffset":2376,
			"target":34962
		},
		{
			"buffer":0,
			"byteLength":288,
			"byteOffset":2664,
			"target":34962
		},
		{
			"buffer":0,
			"byteLength":192,
			"byteOffset":2952,
			"target":34962
		},
		{
			"buffer":0,
			"byteLength":288,
			"byteOffset":3144,
			"target":34962
		},
		{
			"buffer":0,
			"byteLength":288,
			"byteOffset":3432,
			"target":34962
		},
		{
			"buffer":0,
			"byteLength":192,
			"byteOffset":3720,
			"target":34962
		},
		{
			"buffer":0,
			"byteLength":1440,
			"byteOffset":3912,
			"target":34962
		},
		{
			"buffer":0,
			"byteLength":1440,
			"byteOffset":5352,
			"target":34962
		},
		{
			"buffer":0,
			"byteLength":960,
			"byteOffset":6792,
			"target":34962
		},
		{
			"buffer":0,
			"byteLength":360,
			"byteOffset":7752,
			"target":34963
		},
		{
			"buffer":0,
			"byteLength":288,
			"byteOffset":8112,
			"target":34962
		},
		{
			"buffer":0,
			"byteLength":288,
			"byteOffset":8400,
			"target":34962
		},
		{
			"buffer":0,
			"byteLength":192,
			"byteOffset":8688,
			"target":34962
		},
		{
			"buffer":0,
			"byteLength":576,
			"byteOffset":8880,
			"target":34962
		},
		{
			"buffer":0,
			"byteLength":576,
			"byteOffset":9456,
			"target":34962
		},
		{
			"buffer":0,
			"byteLength":384,
			"byteOffset":10032,
			"target":34962
		},
		{
			"buffer":0,
			"byteLength":144,
			"byteOffset":10416,
			"target":34963
		},
		{
			"buffer":0,
			"byteLength":288,
			"byteOffset":10560,
			"target":34962
		},
		{
			"buffer":0,
			"byteLength":288,
			"byteOffset":10848,
			"target":34962
		},
		{
			"buffer":0,
			"byteLength":192,
			"byteOffset":11136,
			"target":34962
		},
		{
			"buffer":0,
			"byteLength":288,
			"byteOffset":11328,
			"target":34962
		},
		{
			"buffer":0,
			"byteLength":288,
			"byteOffset":11616,
			"target":34962
		},
		{
			"buffer":0,
			"byteLength":192,
			"byteOffset":11904,
			"target":34962
		}
	],
	"buffers":[
		{
			"byteLength":12096,
			"uri":"laptop.bin"
		}
	]
}
